<svg width="129" height="444" viewBox="0 0 129 444" fill="none" xmlns="http://www.w3.org/2000/svg">
<mask id="mask0_1_850" style="mask-type:alpha" maskUnits="userSpaceOnUse" x="50" y="39" width="266" height="365">
<ellipse cx="183.362" cy="221.723" rx="119.806" ry="190.428" transform="rotate(-22.4132 183.362 221.723)" fill="#4953BE"/>
</mask>
<g mask="url(#mask0_1_850)">
<rect width="248.064" height="3.70311" transform="matrix(0.798849 -0.601532 0.485994 0.873962 93.832 293.893)" fill="#FF6D69"/>
<rect width="248.064" height="3.70311" transform="matrix(0.798849 -0.601532 0.485994 0.873962 87.7429 282.943)" fill="#FF6D69"/>
<rect width="248.064" height="3.70311" transform="matrix(0.798849 -0.601532 0.485994 0.873962 81.6541 271.993)" fill="#FF6D69"/>
<rect width="248.064" height="3.70311" transform="matrix(0.798849 -0.601532 0.485994 0.873962 99.9211 304.843)" fill="#FF6D69"/>
<rect width="248.064" height="3.70311" transform="matrix(0.798849 -0.601532 0.485994 0.873962 106.01 315.792)" fill="#FF6D69"/>
<rect width="248.064" height="3.70311" transform="matrix(0.798849 -0.601532 0.485994 0.873962 112.099 326.742)" fill="#FF6D69"/>
<rect width="248.064" height="3.70311" transform="matrix(0.798849 -0.601532 0.485994 0.873962 118.188 337.692)" fill="#FF6D69"/>
<rect width="248.064" height="3.70311" transform="matrix(0.798849 -0.601532 0.485994 0.873962 125.231 364.226)" fill="#FF6D69"/>
<rect width="248.064" height="3.70311" transform="matrix(0.798849 -0.601532 0.485994 0.873962 119.142 353.276)" fill="#FF6D69"/>
<rect width="248.064" height="3.70311" transform="matrix(0.798849 -0.601532 0.485994 0.873962 57.9541 242.638)" fill="#FF6D69"/>
<rect width="248.064" height="3.70311" transform="matrix(0.798849 -0.601532 0.485994 0.873962 51.865 231.689)" fill="#FF6D69"/>
<rect width="248.064" height="3.70311" transform="matrix(0.798849 -0.601532 0.485994 0.873962 45.7761 220.739)" fill="#FF6D69"/>
<rect width="248.064" height="3.70311" transform="matrix(0.798849 -0.601532 0.485994 0.873962 64.0432 253.588)" fill="#FF6D69"/>
<rect width="248.064" height="3.70311" transform="matrix(0.798849 -0.601532 0.485994 0.873962 70.1321 264.538)" fill="#FF6D69"/>
<rect width="248.064" height="3.70311" transform="matrix(0.798849 -0.601532 0.485994 0.873962 76.2212 275.488)" fill="#FF6D69"/>
<rect width="248.064" height="3.70311" transform="matrix(0.798849 -0.601532 0.485994 0.873962 82.3101 286.438)" fill="#FF6D69"/>
<rect width="248.064" height="3.70311" transform="matrix(0.798849 -0.601532 0.485994 0.873962 95.4421 323.922)" fill="#FF6D69"/>
<rect width="248.064" height="3.70311" transform="matrix(0.798849 -0.601532 0.485994 0.873962 89.353 312.972)" fill="#FF6D69"/>
<rect width="248.064" height="3.70311" transform="matrix(0.798849 -0.601532 0.485994 0.873962 83.2639 302.022)" fill="#FF6D69"/>
<rect width="248.064" height="3.70311" transform="matrix(0.798849 -0.601532 0.485994 0.873962 101.531 334.872)" fill="#FF6D69"/>
<rect width="248.064" height="3.70311" transform="matrix(0.798849 -0.601532 0.485994 0.873962 107.62 345.821)" fill="#FF6D69"/>
<rect width="248.064" height="3.70311" transform="matrix(0.798849 -0.601532 0.485994 0.873962 113.709 356.771)" fill="#FF6D69"/>
<rect width="248.064" height="3.70311" transform="matrix(0.798849 -0.601532 0.485994 0.873962 119.798 367.721)" fill="#FF6D69"/>
<rect width="248.064" height="3.70311" transform="matrix(0.798849 -0.601532 0.485994 0.873962 -43.2727 100.408)" fill="#FF6D69"/>
<rect width="248.064" height="3.70311" transform="matrix(0.798849 -0.601532 0.485994 0.873962 -49.3618 89.4584)" fill="#FF6D69"/>
<rect width="248.064" height="3.70311" transform="matrix(0.798849 -0.601532 0.485994 0.873962 -55.4507 78.5085)" fill="#FF6D69"/>
<rect width="248.064" height="3.70311" transform="matrix(0.798849 -0.601532 0.485994 0.873962 -37.1836 111.358)" fill="#FF6D69"/>
<rect width="248.064" height="3.70311" transform="matrix(0.798849 -0.601532 0.485994 0.873962 -31.0947 122.308)" fill="#FF6D69"/>
<rect width="248.064" height="3.70311" transform="matrix(0.798849 -0.601532 0.485994 0.873962 -25.0056 133.258)" fill="#FF6D69"/>
<rect width="248.064" height="3.70311" transform="matrix(0.798849 -0.601532 0.485994 0.873962 -18.9167 144.208)" fill="#FF6D69"/>
<rect width="248.064" height="3.70311" transform="matrix(0.798849 -0.601532 0.485994 0.873962 -5.78467 181.691)" fill="#FF6D69"/>
<rect width="248.064" height="3.70311" transform="matrix(0.798849 -0.601532 0.485994 0.873962 -11.8738 170.742)" fill="#FF6D69"/>
<rect width="248.064" height="3.70311" transform="matrix(0.798849 -0.601532 0.485994 0.873962 -17.9629 159.792)" fill="#FF6D69"/>
<rect width="248.064" height="3.70311" transform="matrix(0.798849 -0.601532 0.485994 0.873962 0.304199 192.641)" fill="#FF6D69"/>
<rect width="248.064" height="3.70311" transform="matrix(0.798849 -0.601532 0.485994 0.873962 6.39307 203.591)" fill="#FF6D69"/>
<rect width="248.064" height="3.70311" transform="matrix(0.798849 -0.601532 0.485994 0.873962 12.4824 214.541)" fill="#FF6D69"/>
<rect width="248.064" height="3.70311" transform="matrix(0.798849 -0.601532 0.485994 0.873962 18.5713 225.491)" fill="#FF6D69"/>
</g>
</svg>
