<svg width="96" height="231" viewBox="0 0 96 231" fill="none" xmlns="http://www.w3.org/2000/svg">
<g opacity="0.6">
<mask id="mask0_1_608" style="mask-type:alpha" maskUnits="userSpaceOnUse" x="63" y="42" width="103" height="147">
<ellipse cx="114.5" cy="115.5" rx="47.5" ry="75.5" transform="rotate(17.4943 114.5 115.5)" fill="#4953BE"/>
</mask>
<g mask="url(#mask0_1_608)">
<rect width="193.596" height="3.89" transform="matrix(0.870983 0.491313 -0.606392 0.795166 96.9838 90.2103)" fill="#FF9393"/>
<rect width="193.596" height="3.89" transform="matrix(0.870983 0.491313 -0.606392 0.795166 74.2777 111.31)" fill="#FF9393"/>
<rect width="193.596" height="3.89" transform="matrix(0.870983 0.491313 -0.606392 0.795166 80.2069 103.535)" fill="#FF9393"/>
<rect width="193.596" height="3.89" transform="matrix(0.870983 0.491313 -0.606392 0.795166 86.1361 95.7603)" fill="#FF9393"/>
<rect width="193.596" height="3.89" transform="matrix(0.870983 0.491313 -0.606392 0.795166 68.3484 119.086)" fill="#FF9393"/>
<rect width="193.596" height="3.89" transform="matrix(0.870983 0.491313 -0.606392 0.795166 62.4191 126.861)" fill="#FF9393"/>
<rect width="193.596" height="3.89" transform="matrix(0.870983 0.491313 -0.606392 0.795166 56.4899 134.636)" fill="#FF9393"/>
<rect width="193.596" height="3.89" transform="matrix(0.870983 0.491313 -0.606392 0.795166 50.5605 142.411)" fill="#FF9393"/>
</g>
</g>
</svg>
