<svg width="120" height="104" viewBox="0 0 120 104" fill="none" xmlns="http://www.w3.org/2000/svg">
<mask id="mask0_1_555" style="mask-type:alpha" maskUnits="userSpaceOnUse" x="-34" y="24" width="131" height="123">
<ellipse cx="31.5" cy="85.4999" rx="47.5" ry="75.5" transform="rotate(-48.9123 31.5 85.4999)" fill="#C7CAEB"/>
</mask>
<g mask="url(#mask0_1_555)">
<rect width="193.596" height="2.89" transform="matrix(0.798849 -0.601532 0.485994 0.873962 -17.6945 57.2479)" fill="#C7CAEB"/>
<rect width="193.596" height="2.89" transform="matrix(0.798849 -0.601532 0.485994 0.873962 -22.4465 48.7024)" fill="#C7CAEB"/>
<rect width="193.596" height="2.89" transform="matrix(0.798849 -0.601532 0.485994 0.873962 -27.1985 40.1569)" fill="#C7CAEB"/>
<rect width="193.596" height="2.89" transform="matrix(0.798849 -0.601532 0.485994 0.873962 -12.9425 65.7935)" fill="#C7CAEB"/>
<rect width="193.596" height="2.89" transform="matrix(0.798849 -0.601532 0.485994 0.873962 -8.19043 74.339)" fill="#C7CAEB"/>
<rect width="193.596" height="2.89" transform="matrix(0.798849 -0.601532 0.485994 0.873962 -3.43835 82.8845)" fill="#C7CAEB"/>
<rect width="193.596" height="2.89" transform="matrix(0.798849 -0.601532 0.485994 0.873962 1.3136 91.4301)" fill="#C7CAEB"/>
<rect width="193.596" height="2.89" transform="matrix(0.798849 -0.601532 0.485994 0.873962 11.562 120.683)" fill="#C7CAEB"/>
<rect width="193.596" height="2.89" transform="matrix(0.798849 -0.601532 0.485994 0.873962 6.80994 112.138)" fill="#C7CAEB"/>
<rect width="193.596" height="2.89" transform="matrix(0.798849 -0.601532 0.485994 0.873962 2.05798 103.592)" fill="#C7CAEB"/>
<rect width="193.596" height="2.89" transform="matrix(0.798849 -0.601532 0.485994 0.873962 16.3141 129.229)" fill="#C7CAEB"/>
<rect width="193.596" height="2.89" transform="matrix(0.798849 -0.601532 0.485994 0.873962 21.066 137.774)" fill="#C7CAEB"/>
<rect width="193.596" height="2.89" transform="matrix(0.798849 -0.601532 0.485994 0.873962 25.8181 146.32)" fill="#C7CAEB"/>
<rect width="193.596" height="2.89" transform="matrix(0.798849 -0.601532 0.485994 0.873962 30.5701 154.866)" fill="#C7CAEB"/>
</g>
</svg>
