<svg width="93" height="241" viewBox="0 0 93 241" fill="none" xmlns="http://www.w3.org/2000/svg">
<mask id="mask0_1_121" style="mask-type:alpha" maskUnits="userSpaceOnUse" x="71" y="45" width="98" height="151">
<ellipse cx="120.122" cy="120.421" rx="47.5" ry="75.5" transform="rotate(8.5989 120.122 120.421)" fill="#4953BE"/>
</mask>
<g mask="url(#mask0_1_121)">
<rect width="193.596" height="2.89" transform="matrix(0.936479 0.350723 -0.47614 0.879369 79.736 122.501)" fill="#FF8686"/>
<rect width="193.596" height="2.89" transform="matrix(0.936479 0.350723 -0.47614 0.879369 84.3915 113.903)" fill="#FF8686"/>
<rect width="193.596" height="2.89" transform="matrix(0.936479 0.350723 -0.47614 0.879369 89.0472 105.304)" fill="#FF8686"/>
<rect width="193.596" height="2.89" transform="matrix(0.936479 0.350723 -0.47614 0.879369 75.0802 131.1)" fill="#FF8686"/>
<rect width="193.596" height="2.89" transform="matrix(0.936479 0.350723 -0.47614 0.879369 70.4246 139.698)" fill="#FF8686"/>
<rect width="193.596" height="2.89" transform="matrix(0.936479 0.350723 -0.47614 0.879369 65.7689 148.297)" fill="#FF8686"/>
<rect width="193.596" height="2.89" transform="matrix(0.936479 0.350723 -0.47614 0.879369 61.1132 156.895)" fill="#FF8686"/>
</g>
</svg>
